HIERARCHY
ROOT Hips
{
    OFFSET   0.000000   0.000000   0.000000
    CHANNELS 6 Xposition Yposition Zposition Zrotation Xrotation Yrotation
    JOINT Chest
    {
        OFFSET   0.000000   8.007230   0.000000
        CHANNELS 3 Zrotation Xrotation Yrotation
        JOINT Chest2
        {
            OFFSET   0.000000  22.077100   0.000000
            CHANNELS 3 Zrotation Xrotation Yrotation
            JOINT Neck
            {
                OFFSET   0.000000  23.254800   0.000000
                CHANNELS 3 Zrotation Xrotation Yrotation
                JOINT Head
                {
                    OFFSET   0.000010  14.370000   1.956600
                    CHANNELS 3 Zrotation Xrotation Yrotation
                    End Site
                    {
                        OFFSET   0.000000  19.566000   0.000000
                    }
                }
            }
            JOINT LeftCollar
            {
                OFFSET   3.911900  19.017000  -0.467062
                CHANNELS 3 Zrotation Xrotation Yrotation
                JOINT LeftShoulder
                {
                    OFFSET  10.383700   0.000000   0.000000
                    CHANNELS 3 Zrotation Xrotation Yrotation
                    JOINT LeftElbow
                    {
                        OFFSET  26.662100   0.001193   0.000835
                        CHANNELS 3 Zrotation Xrotation Yrotation
                        JOINT LeftWrist
                        {
                            OFFSET  28.869000  -0.000058  -0.000075
                            CHANNELS 3 Zrotation Xrotation Yrotation
                            JOINT LeftFinger0
                            {
                                OFFSET   2.044660  -2.323460   3.252850
                                CHANNELS 3 Zrotation Xrotation Yrotation
                                JOINT LeftFinger01
                                {
                                    OFFSET   3.088130   0.000000   0.000000
                                    CHANNELS 3 Zrotation Xrotation Yrotation
                                    JOINT LeftFinger02
                                    {
                                        OFFSET   2.639450   0.000000   0.000000
                                        CHANNELS 3 Zrotation Xrotation Yrotation
                                        End Site
                                        {
                                            OFFSET   2.582190   0.000000   0.000000
                                        }
                                    }
                                }
                            }
                            JOINT LeftFinger1
                            {
                                OFFSET   8.364480   0.000000   3.252850
                                CHANNELS 3 Zrotation Xrotation Yrotation
                                JOINT LeftFinger11
                                {
                                    OFFSET   4.646920   0.000000   0.000000
                                    CHANNELS 3 Zrotation Xrotation Yrotation
                                    JOINT LeftFinger12
                                    {
                                        OFFSET   2.323460   0.000000   0.000000
                                        CHANNELS 3 Zrotation Xrotation Yrotation
                                        End Site
                                        {
                                            OFFSET   2.273050   0.000000   0.000000
                                        }
                                    }
                                }
                            }
                            JOINT LeftFinger2
                            {
                                OFFSET   8.364490   0.000016   1.078090
                                CHANNELS 3 Zrotation Xrotation Yrotation
                                JOINT LeftFinger21
                                {
                                    OFFSET   5.111620   0.000000   0.000000
                                    CHANNELS 3 Zrotation Xrotation Yrotation
                                    JOINT LeftFinger22
                                    {
                                        OFFSET   2.788150   0.000012   0.000000
                                        CHANNELS 3 Zrotation Xrotation Yrotation
                                        End Site
                                        {
                                            OFFSET   2.727660   0.000000   0.000000
                                        }
                                    }
                                }
                            }
                            JOINT LeftFinger3
                            {
                                OFFSET   7.899780   0.000014  -1.078090
                                CHANNELS 3 Zrotation Xrotation Yrotation
                                JOINT LeftFinger31
                                {
                                    OFFSET   4.646930   0.000000   0.000000
                                    CHANNELS 3 Zrotation Xrotation Yrotation
                                    JOINT LeftFinger32
                                    {
                                        OFFSET   2.323470   0.000000   0.000000
                                        CHANNELS 3 Zrotation Xrotation Yrotation
                                        End Site
                                        {
                                            OFFSET   2.273050   0.000000   0.000000
                                        }
                                    }
                                }
                            }
                            JOINT LeftFinger4
                            {
                                OFFSET   7.435090   0.000000  -3.252850
                                CHANNELS 3 Zrotation Xrotation Yrotation
                                JOINT LeftFinger41
                                {
                                    OFFSET   3.717550   0.000000   0.000000
                                    CHANNELS 3 Zrotation Xrotation Yrotation
                                    JOINT LeftFinger42
                                    {
                                        OFFSET   1.858770   0.000000   0.000000
                                        CHANNELS 3 Zrotation Xrotation Yrotation
                                        End Site
                                        {
                                            OFFSET   1.818440   0.000000   0.000000
                                        }
                                    }
                                }
                            }
                        }
                    }
                }
            }
            JOINT RightCollar
            {
                OFFSET  -3.911900  19.017000  -0.467063
                CHANNELS 3 Zrotation Xrotation Yrotation
                JOINT RightShoulder
                {
                    OFFSET -10.383700   0.000023   0.000000
                    CHANNELS 3 Zrotation Xrotation Yrotation
                    JOINT RightElbow
                    {
                        OFFSET -26.662100   0.001246   0.001011
                        CHANNELS 3 Zrotation Xrotation Yrotation
                        JOINT RightWrist
                        {
                            OFFSET -28.869000  -0.000026  -0.000078
                            CHANNELS 3 Zrotation Xrotation Yrotation
                            JOINT RightFinger0
                            {
                                OFFSET  -2.044660  -2.323490   3.252850
                                CHANNELS 3 Zrotation Xrotation Yrotation
                                JOINT RightFinger01
                                {
                                    OFFSET  -3.088130   0.000000   0.000000
                                    CHANNELS 3 Zrotation Xrotation Yrotation
                                    JOINT RightFinger02
                                    {
                                        OFFSET  -2.639460   0.000000   0.000000
                                        CHANNELS 3 Zrotation Xrotation Yrotation
                                        End Site
                                        {
                                            OFFSET  -2.582190   0.000000   0.000000
                                        }
                                    }
                                }
                            }
                            JOINT RightFinger1
                            {
                                OFFSET  -8.364480   0.000000   3.252850
                                CHANNELS 3 Zrotation Xrotation Yrotation
                                JOINT RightFinger11
                                {
                                    OFFSET  -4.646920   0.000000   0.000000
                                    CHANNELS 3 Zrotation Xrotation Yrotation
                                    JOINT RightFinger12
                                    {
                                        OFFSET  -2.323470   0.000000   0.000000
                                        CHANNELS 3 Zrotation Xrotation Yrotation
                                        End Site
                                        {
                                            OFFSET  -2.273050   0.000000   0.000000
                                        }
                                    }
                                }
                            }
                            JOINT RightFinger2
                            {
                                OFFSET  -8.364480   0.000000   1.078090
                                CHANNELS 3 Zrotation Xrotation Yrotation
                                JOINT RightFinger21
                                {
                                    OFFSET  -5.111620   0.000000   0.000000
                                    CHANNELS 3 Zrotation Xrotation Yrotation
                                    JOINT RightFinger22
                                    {
                                        OFFSET  -2.788160   0.000000   0.000000
                                        CHANNELS 3 Zrotation Xrotation Yrotation
                                        End Site
                                        {
                                            OFFSET  -2.727660   0.000000   0.000000
                                        }
                                    }
                                }
                            }
                            JOINT RightFinger3
                            {
                                OFFSET  -7.899780   0.000000  -1.078090
                                CHANNELS 3 Zrotation Xrotation Yrotation
                                JOINT RightFinger31
                                {
                                    OFFSET  -4.646930   0.000000   0.000000
                                    CHANNELS 3 Zrotation Xrotation Yrotation
                                    JOINT RightFinger32
                                    {
                                        OFFSET  -2.323470   0.000000   0.000000
                                        CHANNELS 3 Zrotation Xrotation Yrotation
                                        End Site
                                        {
                                            OFFSET  -2.273050   0.000000   0.000000
                                        }
                                    }
                                }
                            }
                            JOINT RightFinger4
                            {
                                OFFSET  -7.435090   0.000000  -3.252850
                                CHANNELS 3 Zrotation Xrotation Yrotation
                                JOINT RightFinger41
                                {
                                    OFFSET  -3.717550   0.000000   0.000000
                                    CHANNELS 3 Zrotation Xrotation Yrotation
                                    JOINT RightFinger42
                                    {
                                        OFFSET  -1.858760   0.000000   0.000000
                                        CHANNELS 3 Zrotation Xrotation Yrotation
                                        End Site
                                        {
                                            OFFSET  -1.818440   0.000000   0.000000
                                        }
                                    }
                                }
                            }
                        }
                    }
                }
            }
        }
    }
    JOINT LeftHip
    {
        OFFSET   9.783010   0.000000   0.000000
        CHANNELS 3 Zrotation Xrotation Yrotation
        JOINT LeftKnee
        {
            OFFSET   0.000073 -41.789100   0.001749
            CHANNELS 3 Zrotation Xrotation Yrotation
            JOINT LeftAnkle
            {
                OFFSET   0.000111 -41.133200  -0.000179
                CHANNELS 3 Zrotation Xrotation Yrotation
                JOINT LeftToe
                {
                    OFFSET   0.000000  -6.358960  14.674500
                    CHANNELS 3 Zrotation Xrotation Yrotation
                    End Site
                    {
                        OFFSET   0.000000   0.000000   3.913200
                    }
                }
            }
        }
    }
    JOINT RightHip
    {
        OFFSET  -9.783010   0.000000   0.000000
        CHANNELS 3 Zrotation Xrotation Yrotation
        JOINT RightKnee
        {
            OFFSET   0.000424 -41.789200   0.005205
            CHANNELS 3 Zrotation Xrotation Yrotation
            JOINT RightAnkle
            {
                OFFSET   0.000000 -41.133200  -0.000155
                CHANNELS 3 Zrotation Xrotation Yrotation
                JOINT RightToe
                {
                    OFFSET   0.000000  -6.358960  14.674500
                    CHANNELS 3 Zrotation Xrotation Yrotation
                    End Site
                    {
                        OFFSET   0.000000   0.000000   3.913200
                    }
                }
            }
        }
    }
}
MOTION
Frames: 6
Frame Time:   0.016667
  1.185020  89.412000   1.961310  -3.431300  -6.839220  -3.252480   0.883335   4.733440   0.008414   1.775130   9.466480  -0.056983  -0.738294  -0.606422   0.000000  -1.212680  -1.229040   4.003560  -4.676140  -1.063550   2.069820 -75.493700  17.035200  -2.241140  -0.273959  -1.749430 -18.587800  13.068800  -5.656150   1.778010  43.469400  36.243000 -61.468400 -29.299600   0.000974   0.000617  -9.649810   0.004490  -0.001048 -28.872000   5.022910  -9.022540 -23.947000  -0.004708  -0.000411 -16.751700   0.002006  -0.001932 -28.754700   0.861722  -1.570200 -40.641100  -0.002963  -0.003789 -27.067000   0.001731  -0.003873 -28.683500   0.859843  -1.571230 -38.940500   0.002932   0.005237 -25.934300  -0.001153   0.003945 -35.428300   0.134928  -0.198997 -53.142800  -0.002287  -0.004536 -35.393200  -0.002992  -0.003460   8.799780   0.874975   7.439030  70.465900  -2.059390  -2.189510  -2.050600 -12.180000  12.170300 -11.143700   0.567762   1.030910 -37.589200  31.310800  61.407400  32.973700  -0.002037  -0.004128  11.487300  -0.000913   0.000986  33.439200   5.976150   8.959770  27.742800  -0.000302  -0.002334  19.420000   0.000104  -0.006772  33.582000   4.836820   7.242660  50.832100  -0.004942   0.004583  33.854200   0.002539  -0.005701  34.498600   3.161340   4.590480  51.937700  -0.005388   0.007113  34.590600   0.001368  -0.004558  45.642800  -2.896370  -2.828590  68.571400   0.000219  -0.002472  45.668600   0.000297  -0.000000   1.871730  11.358100   3.448880   0.406217   0.112785   0.378529   0.193021  -4.921940   2.943090   0.000000   0.000000  -0.000000   2.181340   9.080410   0.328732  -0.255303   2.316800  -3.512650  -0.690467  -5.093200  -0.115697  -0.000000   0.000000   0.000000
  1.202730  89.412000   1.990050  -3.437660  -6.873750  -3.246030   0.886953   4.747740   0.003334   1.782860   9.494950  -0.067728  -0.726304  -0.606277  -0.000000  -1.193100  -1.229030   3.996940  -4.676380  -1.063520   2.069620 -75.490400  17.070500  -2.246500  -0.291609  -1.788330 -18.553900  13.059100  -5.630860   1.761410  43.470000  36.245300 -61.470600 -29.296600   0.000974   0.000590  -9.648310   0.004489  -0.001044 -28.862000   5.025430  -9.030030 -23.940600  -0.004706  -0.000409 -16.751700   0.002006  -0.001931 -28.754400   0.866640  -1.579230 -40.617600  -0.002961  -0.003787 -27.051300   0.001730  -0.003870 -28.683200   0.864751  -1.580260 -38.926000   0.002932   0.005237 -25.924700  -0.001157   0.003947 -35.415800   0.135036  -0.199239 -53.124100  -0.002287  -0.004532 -35.380600  -0.002995  -0.003462   8.807700   0.861599   7.440730  70.460700  -2.072300  -2.207590  -2.068240 -12.156900  12.192400 -11.143300   0.540557   1.038070 -37.589800  31.323400  61.455000  32.970300  -0.002043  -0.004132  11.485400  -0.000918   0.000987  33.458800   6.011480   9.004970  27.763000  -0.000303  -0.002333  19.434100   0.000104  -0.006776  33.601200   4.836890   7.235800  50.860500  -0.004941   0.004583  33.873200   0.002534  -0.005698  34.516200   3.159390   4.583520  51.963900  -0.005391   0.007115  34.608100   0.001367  -0.004557  45.663300  -2.903600  -2.833590  68.602500   0.000216  -0.002469  45.689400   0.000296   0.000027   1.866720  11.419400   3.454960   0.406831   0.099396   0.389861   0.185482  -4.922540   2.921460   0.000000   0.000000   0.000000   2.185810   9.126570   0.335859  -0.273482   2.335720  -3.536210  -0.677282  -5.120620  -0.118634  -0.000000   0.000000   0.000000
  1.232270  89.412100   2.035420  -3.447670  -6.929310  -3.234140   0.893084   4.770900  -0.004607   1.795930   9.541120  -0.084583  -0.705938  -0.606133   0.000000  -1.159880  -1.229040   3.981920  -4.676630  -1.063500   2.069420 -75.485200  17.126800  -2.255780  -0.316931  -1.841970 -18.506500  13.048200  -5.603160   1.732680  43.470600  36.247700 -61.472800 -29.287700   0.000974   0.000562  -9.643830   0.004482  -0.001040 -28.850700   5.031530  -9.045500 -23.931000  -0.004705  -0.000405 -16.751700   0.002007  -0.001931 -28.753900   0.876418  -1.597120 -40.593800  -0.002958  -0.003782 -27.035400   0.001727  -0.003867 -28.682700   0.874506  -1.598170 -38.908600   0.002932   0.005237 -25.913100  -0.001162   0.003951 -35.403300   0.135217  -0.199482 -53.105300  -0.002286  -0.004524 -35.368100  -0.003003  -0.003464   8.823260   0.835313   7.445890  70.450500  -2.085200  -2.239630  -2.102840 -12.114500  12.233200 -11.143000   0.513350   1.054290 -37.593200  31.344000  61.529500  32.961800  -0.002053  -0.004135  11.480900  -0.000926   0.000989  33.488200   6.065760   9.074650  27.793600  -0.000307  -0.002329  19.455500   0.000105  -0.006786  33.636900   4.837030   7.223050  50.913400  -0.004939   0.004584  33.908400   0.002518  -0.005693  34.549200   3.155320   4.570580  52.012700  -0.005394   0.007120  34.640500   0.001366  -0.004551  45.700000  -2.916570  -2.842560  68.658500   0.000211  -0.002464  45.726600   0.000294   0.000060   1.858260  11.506200   3.469730   0.407440   0.086007   0.407268   0.172033  -4.926270   2.881030   0.000000   0.000000   0.000000   2.192280   9.198730   0.345693  -0.303398   2.369140  -3.562150  -0.655011  -5.165110  -0.128069   0.000000   0.000000   0.000000
  1.256160  89.412200   2.066330  -3.454120  -6.969930  -3.221900   0.898135   4.788420  -0.009906   1.806620   9.576080  -0.095952  -0.688896  -0.606726  -0.000000  -1.132230  -1.229680   3.960370  -4.674720  -1.066200   2.069470 -75.484100  17.167400  -2.263900  -0.330218  -1.861950 -18.486100  13.055900  -5.600380   1.706810  43.466100  36.224000 -61.449400 -29.270200   0.000963   0.000573  -9.635090   0.004465  -0.001048 -28.848500   5.040990  -9.065490 -23.924600  -0.004707  -0.000402 -16.752200   0.002012  -0.001930 -28.753200   0.888388  -1.618950 -40.593400  -0.002957  -0.003776 -27.035200   0.001721  -0.003865 -28.682000   0.886447  -1.620010 -38.905100   0.002934   0.005241 -25.910700  -0.001165   0.003954 -35.406200   0.135399  -0.199421 -53.109500  -0.002296  -0.004520 -35.371000  -0.003017  -0.003460   8.842150   0.804025   7.455490  70.436800  -2.084150  -2.272500  -2.141980 -12.071900  12.273900 -11.131700   0.513495   1.076880 -37.603600  31.363300  61.589300  32.945800  -0.002059  -0.004134  11.472800  -0.000931   0.000993  33.508000   6.106280   9.127350  27.814700  -0.000316  -0.002320  19.470200   0.000101  -0.006803  33.674100   4.835180   7.209800  50.968300  -0.004937   0.004591  33.944900   0.002490  -0.005687  34.583500   3.150160   4.557170  52.063200  -0.005397   0.007126  34.674100   0.001365  -0.004540  45.735800  -2.929220  -2.851300  68.713100   0.000203  -0.002457  45.762900   0.000291   0.000066   1.851400  11.534700   3.492810   0.406777   0.133292   0.418397   0.159647  -4.955180   2.837340   0.000000   0.000000  -0.000000   2.195900   9.245990   0.349379  -0.326645   2.401200  -3.564960  -0.635872  -5.198370  -0.147074   0.000000   0.000000   0.000000
  1.279660  89.412300   2.094250  -3.460530  -7.007440  -3.208960   0.903414   4.804420  -0.014475   1.817710   9.608040  -0.105850  -0.671282  -0.607319  -0.000000  -1.103410  -1.230320   3.936340  -4.671380  -1.070570   2.069840 -75.485000  17.202900  -2.272420  -0.335793  -1.867200 -18.479300  13.072500  -5.600050   1.680820  43.459900  36.191300 -61.416000 -29.252200   0.000952   0.000590  -9.626070   0.004443  -0.001064 -28.847000   5.051560  -9.086390 -23.921400  -0.004709  -0.000401 -16.753000   0.002022  -0.001929 -28.752500   0.900596  -1.641180 -40.593400  -0.002956  -0.003768 -27.035200   0.001713  -0.003865 -28.681300   0.898625  -1.642260 -38.904600   0.002937   0.005249 -25.910400  -0.001168   0.003958 -35.413700   0.135509  -0.198996 -53.120900  -0.002312  -0.004515 -35.378600  -0.003037  -0.003456   8.860860   0.771704   7.466760  70.425500  -2.077060  -2.301260  -2.186260 -12.025200  12.319600 -11.110300   0.514530   1.103470 -37.611300  31.374600  61.622300  32.933500  -0.002064  -0.004133  11.466700  -0.000933   0.000999  33.517900   6.127840   9.155580  27.825500  -0.000328  -0.002309  19.477800   0.000094  -0.006825  33.714300   4.832130   7.195510  51.027500  -0.004934   0.004602  33.984300   0.002454  -0.005678  34.620600   3.144310   4.542640  52.117900  -0.005398   0.007135  34.710500   0.001363  -0.004526  45.773000  -2.942330  -2.860340  68.769600   0.000194  -0.002448  45.800500   0.000288   0.000068   1.844210  11.563100   3.518330   0.404299   0.180577   0.427137   0.147374  -4.981050   2.792890   0.000000   0.000000   0.000000   2.197380   9.288520   0.350379  -0.347967   2.432840  -3.565440  -0.617796  -5.229680  -0.167685   0.000000   0.000000  -0.000000
  1.302530  89.412300   2.120500  -3.468520  -7.041920  -3.197100   0.909483   4.818130  -0.017967   1.830250   9.635380  -0.113615  -0.653163  -0.604341  -0.000000  -1.073560  -1.224780   3.911940  -4.668040  -1.073930   2.073210 -75.486000  17.231800  -2.280810  -0.334964  -1.865640 -18.483000  13.091200  -5.623120   1.656430  43.458300  36.178000 -61.400400 -29.240700   0.000953   0.000604  -9.620340   0.004424  -0.001085 -28.846100   5.062720  -9.105940 -23.923000  -0.004712  -0.000401 -16.753900   0.002037  -0.001922 -28.751900   0.911449  -1.660910 -40.611500  -0.002953  -0.003758 -27.047300   0.001704  -0.003867 -28.680700   0.909449  -1.662000 -38.911400   0.002941   0.005256 -25.915000  -0.001174   0.003966 -35.426800   0.135436  -0.195158 -53.140500  -0.002322  -0.004505 -35.391600  -0.003064  -0.003455   8.873200   0.742436   7.476150  70.422700  -2.063720  -2.314820  -2.228450 -11.988400  12.367300 -11.087700   0.533349   1.137690 -37.610300  31.375000  61.618300  32.931900  -0.002067  -0.004139  11.466000  -0.000932   0.001008  33.514200   6.118430   9.146320  27.822500  -0.000341  -0.002295  19.475700   0.000089  -0.006850  33.744200   4.830580   7.184860  51.071500  -0.004929   0.004610  34.013600   0.002411  -0.005666  34.649700   3.139830   4.531200  52.161000  -0.005400   0.007146  34.739100   0.001358  -0.004511  45.796600  -2.950650  -2.866160  68.805600   0.000183  -0.002433  45.824500   0.000284   0.000075   1.838920  11.638400   3.540270   0.399107   0.129807   0.432825   0.137105  -4.964610   2.756450  -0.000000   0.000000  -0.000000   2.199720   9.330570   0.329195  -0.365802   2.458620  -3.548480  -0.603336  -5.258710  -0.181458  -0.000000   0.000000   0.000000
